<svg xmlns="http://www.w3.org/2000/svg" width="694" height="694" viewBox="0 0 694 694">
  <g id="fork-and-knife" transform="translate(110.561 111)">
    <g id="Group_1" data-name="Group 1">
      <path id="Path_1" data-name="Path 1" d="M181.423,12.772l-1.8,85.74c0,3.381-2.292,7.755-6.6,7.755h-2.309c-4.308,0-6.6-4.8-6.6-8.275L157.216,12.1c-1.764.008-3.568.008-5.454.008-3.292,0-6.373-.016-9.291-.016L135.578,99.17c.024,3.146-2.276,7.1-6.584,7.1h-2.309c-4.308,0-6.6-4.8-6.6-8.275L118.3,13.112c-22.866,3.6-22.858,19.647-22.858,89.935,0,23.711,9.421,44.358,26.247,55.453a50.3,50.3,0,0,0,7.308,4.007,51.764,51.764,0,0,0,8.064,2.764l-7.73,295.571c0,6.17,13.136,11.209,19.305,11.209h10.161c6.17,0,19.305-5.023,19.305-11.193l-7.755-296.677a52.357,52.357,0,0,0,16.728-9.649c13.526-11.681,21.021-30.36,21.021-51.478C208.093,30.151,206.686,15.609,181.423,12.772Z" fill="#010002"/>
      <path id="Path_2" data-name="Path 2" d="M314.642,193.194v45.764a25.644,25.644,0,0,0,3.682,13.176c3.869-3.5,9.34-3.552,12.063-3.552,1.967,0,4.113.122,6.381.244,2.4.13,4.934.268,7.584.268H346.9c2.642,0,5.186-.146,7.584-.268,2.268-.13,4.414-.244,6.381-.244,2.731,0,8.194.049,12.063,3.552a25.628,25.628,0,0,0,3.682-13.176V0C323.787-.713,314.642,179.278,314.642,193.194Z" fill="#010002"/>
      <path id="Path_3" data-name="Path 3" d="M360.869,256.711c-1.837,0-3.829.114-5.934.228-2.536.146-5.235.285-8.023.285h-2.561c-2.8,0-5.495-.146-8.023-.285-2.113-.122-4.105-.228-5.934-.228-3.471,0-5.576.325-6.8,1.609-1.032,1.081-1.447,2.829-1.447,5.739V444.9c0,12.729,9.966,23.093,22.207,23.093H346.9c12.25,0,22.207-10.356,22.207-23.093V264.059c0-2.91-.423-4.658-1.447-5.739C366.445,257.036,364.348,256.711,360.869,256.711Z" fill="#010002"/>
    </g>
  </g>
  <g id="Ellipse_1" data-name="Ellipse 1" fill="none" stroke="#f7f09e" stroke-width="20">
    <circle cx="347" cy="347" r="347" stroke="none"/>
    <circle cx="347" cy="347" r="337" fill="none"/>
  </g>
</svg>
